<?xml version="1.0" encoding="utf-8"?>
<!-- Generator: Adobe Illustrator 16.0.0, SVG Export Plug-In . SVG Version: 6.00 Build 0)  -->
<!DOCTYPE svg PUBLIC "-//W3C//DTD SVG 1.1//EN" "http://www.w3.org/Graphics/SVG/1.1/DTD/svg11.dtd">
<svg version="1.1" id="Layer_1" xmlns="http://www.w3.org/2000/svg" xmlns:xlink="http://www.w3.org/1999/xlink" x="0px" y="0px"
	 width="500px" height="500px" viewBox="0 0 500 500" enable-background="new 0 0 500 500" xml:space="preserve">
<path fill="none" d="M115.612,68.802c-5.905,7.776-9.828,14.401-11.772,19.872c-0.793,1.944-0.721,2.916,0.216,2.916
	c0.503,0,1.043-0.395,1.62-1.188c1.655-1.872,3.581-4.337,5.778-7.398c2.196-3.059,4.625-6.713,7.29-10.962
	c5.471-8.495,9-14.723,10.584-18.684C125.151,56.959,120.58,62.106,115.612,68.802z"/>
<path fill="none" d="M248.235,115.35c3.888-1.225,8.892-4.32,15.012-9.288c0.044-0.036,0.085-0.071,0.13-0.107
	c-10.134,2.748-19.686,5.8-28.665,9.151c1.396,1.022,3.378,1.54,5.963,1.54C243.195,116.646,245.714,116.214,248.235,115.35z"/>
<path fill="none" d="M267.316,104.908c-1.119,1.016-2.282,2.045-3.529,3.099c-5.904,4.823-10.8,7.992-14.688,9.504
	c-1.01,0.359-2.035,0.629-3.078,0.81c-1.045,0.179-2.106,0.27-3.187,0.27c-3.528,0-6.444-0.937-8.747-2.808
	c-0.128-0.099-0.237-0.209-0.358-0.312c-5.42,2.045-10.632,4.2-15.628,6.468c-6.04,2.808-11.423,5.647-16.22,8.517
	c1.299,0.775,2.176,2.099,2.401,3.577c0.077,0.187,0.16,0.373,0.215,0.564c0.042,0.1,0.085,0.198,0.125,0.299
	c0.64,1.62,0.022,3.403-1.134,4.657c-0.206,0.276-0.438,0.534-0.698,0.765c-0.58,0.771-1.381,1.308-2.274,1.611
	c-0.462,1.278-1.433,2.319-2.657,2.882c-0.856,0.675-1.929,1.102-3.101,1.164c-3.917,0.208-5.916-2.74-6.326-6.07
	c-6.277,5.323-10.564,10.745-12.775,16.271c-0.864,2.304-1.296,4.606-1.296,6.912c0,7.631,3.78,14.363,11.34,20.195
	c7.992,6.119,16.994,8.965,27,8.532c17.425-0.647,33.984-13.681,49.68-39.096c4.823-7.849,9.234-16.092,13.229-24.732
	c3.996-8.64,7.577-17.82,10.746-27.54C279.804,101.826,273.458,103.313,267.316,104.908z"/>
<path fill="none" d="M295.43,68.478V68.37c0-0.216,0.035-0.359,0.108-0.432c0-1.296-0.253-1.979-0.756-2.052
	c-0.794-0.287-2.449-0.108-4.969,0.54c-5.256,1.225-10.476,3.817-15.66,7.776c-5.472,4.32-8.964,8.712-10.476,13.176
	c-0.072,0.361-0.127,0.648-0.162,0.864c-0.037,0.216-0.054,0.504-0.054,0.864c0,2.305,0.864,3.456,2.592,3.456
	c1.512,0,5.94-2.627,13.284-7.884c2.951-2.087,5.524-3.978,7.722-5.67c2.195-1.691,4.013-3.186,5.454-4.482
	c1.799-1.367,2.809-3.348,3.024-5.94C295.538,68.515,295.501,68.478,295.43,68.478z"/>
<path fill="none" d="M244.995,65.886c0-0.792-0.45-1.512-1.35-2.16c-0.901-0.648-2.106-0.972-3.618-0.972
	c-0.793,0-1.62,0.108-2.484,0.324c-3.385,0.864-7.668,4.141-12.852,9.828c-4.752,5.329-8.137,10.368-10.152,15.12
	c-0.36,0.864-0.54,1.692-0.54,2.484c0,1.728,0.648,2.592,1.944,2.592c0.503,0,1.043-0.179,1.62-0.54
	c4.031-2.592,8.298-6.011,12.798-10.26c4.499-4.248,9.27-9.432,14.311-15.552C244.888,66.534,244.995,66.247,244.995,65.886z"/>
<path fill="none" d="M303.097,92.67c0,1.728,1.151,2.376,3.456,1.944c4.896-0.792,10.763-4.32,17.604-10.584
	c7.199-6.408,11.341-12.24,12.421-17.496c0.503-2.16-0.864-3.419-4.104-3.78c-1.728-0.216-3.348-0.232-4.86-0.054
	c-1.512,0.181-2.916,0.523-4.212,1.026c-0.145-0.071-0.756,0.253-1.836,0.972c-7.705,7.128-13.645,15.66-17.819,25.596
	C303.313,91.087,303.097,91.879,303.097,92.67z"/>
<g>
	<path d="M205.641,28.178c1.146-0.376,2.213-0.599,3.201-0.668c2.279-0.158,3.414,0.563,3.403,2.159
		c-0.003,0.509-0.123,1.118-0.358,1.826c-0.236,0.712-0.667,1.496-1.292,2.354c-3.992,6.136-7.782,12.32-11.357,18.524
		c-3.674,6.34-7.196,12.688-10.549,19.031c-8.682,16.563-13.475,28.665-13.987,35.778c-0.171,2.027,0.394,3.806,1.707,5.32
		c1.232,1.526,2.653,1.85,4.258,0.984c1.883-1.022,3.896-2.351,6.034-3.976c2.129-1.615,4.429-3.649,6.895-6.094
		c4.123-3.937,7.151-7.3,9.109-10.126c0.738-1.008,1.112-1.734,1.123-2.182c0.006-0.224-0.125-0.301-0.392-0.232
		c-0.447,0.115-1.083,0.724-1.915,1.832c-2.136,2.727-5.385,6.039-9.777,9.973c-2.358,2.109-4.458,3.835-6.294,5.168
		c-1.843,1.341-3.422,2.359-4.733,3.05c-2.897,1.388-4.221,0.515-3.968-2.629c0.02-0.242,0.042-0.525,0.068-0.846
		c0.02-0.242,0.087-0.538,0.205-0.885c2.371-10,8.464-23.318,17.898-39.445c1.797-3.068,4.335-7.236,7.573-12.454
		c3.166-5.119,7.006-11.206,11.463-18.179c0.39-0.4,0.585-1.21,0.585-2.436c0-2.015-0.537-3.989-1.6-5.932
		c-1.201-2.167-2.776-3.125-4.739-2.859c-6.506,0.776-18.161,9.57-35.942,27.683c-15.284,16.125-28.112,31.065-38.12,44.332
		c-0.668,1.035-1.353,1.634-2.051,1.798c-1.311,0.308-1.49-0.401-0.538-2.127c14.109-25.332,22.102-42.776,24.679-53.266
		c0.377-1.677,0.08-3.183-0.888-4.521c-0.96-1.348-2.208-1.959-3.747-1.827c-3.851,0.333-11.496,6.023-23.263,17.511
		c4.128-8.046,7.397-15.013,9.844-20.95c2.407-5.885,3.992-10.751,4.779-14.631c0.482-2.491-0.253-4.868-2.189-7.159
		c-1.929-2.229-3.971-3.308-6.147-3.214c-4.773,0.483-11.992,4.13-21.836,11.182c-9.898,7.17-19.194,15.53-27.879,25.067
		c-9.714,10.882-15.55,19.862-17.31,26.669c-0.568,2.197-0.604,4.151-0.103,5.858c0.507,1.701,1.159,2.69,1.955,2.973
		c1.319,0.402,2.719,0.167,4.199-0.701c1.449-0.756,2.227-1.347,2.332-1.776c0.105-0.428-0.443-0.441-1.644-0.04
		c-0.712,0.325-2.026,0.229-3.938-0.295c-1.798-0.652-2.468-1.856-2.019-3.607c2.473-9.628,12.727-22.899,30.165-39.014
		c16.021-14.54,27.801-22.083,35.858-23.322c2.747-0.4,4.583-0.042,5.516,1.069c0.936,1.102,1.14,3.231,0.606,6.389
		c-0.565,3.345-2.522,8.977-5.926,16.97c-1.894,4.323-3.913,8.617-6.061,12.882c-2.172,4.299-4.516,8.58-7.033,12.847
		c-5.037,5.346-9.991,10.888-14.86,16.622c-4.945,5.835-9.877,12.016-14.795,18.548c-12.641,16.631-19.876,28.29-21.349,34.498
		c-0.548,2.314-0.462,3.374,0.266,3.173c0.817-0.225,2.382-1.293,4.69-3.191c1.113-0.788,2.075-1.559,2.882-2.311
		c0.806-0.749,1.39-1.366,1.754-1.852c12.585-14.757,27.359-36.62,43.77-64.849c3.461-4.375,8.033-9.063,13.681-14.023
		c6.553-5.833,11.292-8.825,14.31-9.105c2.089-0.194,2.779,1.177,2.069,4.116c-1.867,6.208-5.489,14.744-10.977,25.753
		c-5.666,11.246-13.54,25.353-23.831,42.596c-0.14,0.306-0.245,0.535-0.314,0.688c-0.071,0.153-0.122,0.324-0.155,0.512
		c-0.168,0.945,0.463,1.229,1.896,0.856c1.88-0.49,3.37-1.456,4.469-2.896c14.149-18.714,29.272-36.617,45.225-53.513
		C187.276,39.857,198.796,30.416,205.641,28.178z M100.483,96.361c-4.435,6.606-8.471,12.399-12.089,17.353
		c-3.66,5.011-6.832,9.136-9.5,12.356c-0.981,1.331-1.786,2.079-2.415,2.246c-1.17,0.311-0.934-1.072,0.704-4.141
		c4.207-8.485,11.105-19.073,20.538-31.546c7.764-10.421,14.458-18.394,20.167-24.035C115.053,74.219,109.312,83.395,100.483,96.361
		z"/>
	<path fill="none" stroke="#000000" stroke-miterlimit="10" d="M205.641,28.178c1.146-0.376,2.213-0.599,3.201-0.668
		c2.279-0.158,3.414,0.563,3.403,2.159c-0.003,0.509-0.123,1.118-0.358,1.826c-0.236,0.712-0.667,1.496-1.292,2.354
		c-3.992,6.136-7.782,12.32-11.357,18.524c-3.674,6.34-7.196,12.688-10.549,19.031c-8.682,16.563-13.475,28.665-13.987,35.778
		c-0.171,2.027,0.394,3.806,1.707,5.32c1.232,1.526,2.653,1.85,4.258,0.984c1.883-1.022,3.896-2.351,6.034-3.976
		c2.129-1.615,4.429-3.649,6.895-6.094c4.123-3.937,7.151-7.3,9.109-10.126c0.738-1.008,1.112-1.734,1.123-2.182
		c0.006-0.224-0.125-0.301-0.392-0.232c-0.447,0.115-1.083,0.724-1.915,1.832c-2.136,2.727-5.385,6.039-9.777,9.973
		c-2.358,2.109-4.458,3.835-6.294,5.168c-1.843,1.341-3.422,2.359-4.733,3.05c-2.897,1.388-4.221,0.515-3.968-2.629
		c0.02-0.242,0.042-0.525,0.068-0.846c0.02-0.242,0.087-0.538,0.205-0.885c2.371-10,8.464-23.318,17.898-39.445
		c1.797-3.068,4.335-7.236,7.573-12.454c3.166-5.119,7.006-11.206,11.463-18.179c0.39-0.4,0.585-1.21,0.585-2.436
		c0-2.015-0.537-3.989-1.6-5.932c-1.201-2.167-2.776-3.125-4.739-2.859c-6.506,0.776-18.161,9.57-35.942,27.683
		c-15.284,16.125-28.112,31.065-38.12,44.332c-0.668,1.035-1.353,1.634-2.051,1.798c-1.311,0.308-1.49-0.401-0.538-2.127
		c14.109-25.332,22.102-42.776,24.679-53.266c0.377-1.677,0.08-3.183-0.888-4.521c-0.96-1.348-2.208-1.959-3.747-1.827
		c-3.851,0.333-11.496,6.023-23.263,17.511c4.128-8.046,7.397-15.013,9.844-20.95c2.407-5.885,3.992-10.751,4.779-14.631
		c0.482-2.491-0.253-4.868-2.189-7.159c-1.929-2.229-3.971-3.308-6.147-3.214c-4.773,0.483-11.992,4.13-21.836,11.182
		c-9.898,7.17-19.194,15.53-27.879,25.067c-9.714,10.882-15.55,19.862-17.31,26.669c-0.568,2.197-0.604,4.151-0.103,5.858
		c0.507,1.701,1.159,2.69,1.955,2.973c1.319,0.402,2.719,0.167,4.199-0.701c1.449-0.756,2.227-1.347,2.332-1.776
		c0.105-0.428-0.443-0.441-1.644-0.04c-0.712,0.325-2.026,0.229-3.938-0.295c-1.798-0.652-2.468-1.856-2.019-3.607
		c2.473-9.628,12.727-22.899,30.165-39.014c16.021-14.54,27.801-22.083,35.858-23.322c2.747-0.4,4.583-0.042,5.516,1.069
		c0.936,1.102,1.14,3.231,0.606,6.389c-0.565,3.345-2.522,8.977-5.926,16.97c-1.894,4.323-3.913,8.617-6.061,12.882
		c-2.172,4.299-4.516,8.58-7.033,12.847c-5.037,5.346-9.991,10.888-14.86,16.622c-4.945,5.835-9.877,12.016-14.795,18.548
		c-12.641,16.631-19.876,28.29-21.349,34.498c-0.548,2.314-0.462,3.374,0.266,3.173c0.817-0.225,2.382-1.293,4.69-3.191
		c1.113-0.788,2.075-1.559,2.882-2.311c0.806-0.749,1.39-1.366,1.754-1.852c12.585-14.757,27.359-36.62,43.77-64.849
		c3.461-4.375,8.033-9.063,13.681-14.023c6.553-5.833,11.292-8.825,14.31-9.105c2.089-0.194,2.779,1.177,2.069,4.116
		c-1.867,6.208-5.489,14.744-10.977,25.753c-5.666,11.246-13.54,25.353-23.831,42.596c-0.14,0.306-0.245,0.535-0.314,0.688
		c-0.071,0.153-0.122,0.324-0.155,0.512c-0.168,0.945,0.463,1.229,1.896,0.856c1.88-0.49,3.37-1.456,4.469-2.896
		c14.149-18.714,29.272-36.617,45.225-53.513C187.276,39.857,198.796,30.416,205.641,28.178z M100.483,96.361
		c-4.435,6.606-8.471,12.399-12.089,17.353c-3.66,5.011-6.832,9.136-9.5,12.356c-0.981,1.331-1.786,2.079-2.415,2.246
		c-1.17,0.311-0.934-1.072,0.704-4.141c4.207-8.485,11.105-19.073,20.538-31.546c7.764-10.421,14.458-18.394,20.167-24.035
		C115.053,74.219,109.312,83.395,100.483,96.361z"/>
</g>
<path stroke="#000000" stroke-miterlimit="10" d="M272.212,100.176c2.376-2.484,4.354-4.951,5.939-7.398
	c0.359-0.503,0.54-0.899,0.54-1.188c0-0.144-0.037-0.287-0.108-0.432c-0.288,0-0.72,0.361-1.296,1.08
	c-2.737,3.551-6.338,7.248-10.77,11.083c1.136-0.286,2.268-0.581,3.409-0.855C270.723,101.692,271.494,100.927,272.212,100.176z"/>
<path stroke="#000000" stroke-miterlimit="10" d="M232.251,109.41c0-0.361,0-0.721,0-1.08c0-0.289,0.036-0.612,0.108-0.972
	c0.648-4.176,1.817-8.586,3.51-13.23c1.691-4.644,4.05-9.485,7.074-14.526c1.871-3.24,3.851-6.426,5.94-9.558
	c2.087-3.132,4.139-6.318,6.155-9.558c0.071-0.216,0.018-0.486-0.162-0.81c-0.18-0.324-0.45-0.486-0.81-0.486
	c-0.216,0-0.396,0.073-0.54,0.216c-0.864,0.72-1.836,1.188-2.916,1.404c-0.146,0.073-0.793,0.037-1.944-0.108
	c-1.873-0.648-3.636-0.972-5.292-0.972c-1.584,0-3.061,0.289-4.428,0.864c-2.737,1.152-5.742,2.845-9.018,5.076
	c-3.277,2.233-6.75,5.184-10.422,8.856c-7.992,7.992-11.988,14.58-11.988,19.764c0,2.447,0.901,3.672,2.7,3.672
	c0.935,0,1.763-0.253,2.483-0.756c2.304-1.441,4.823-3.132,7.561-5.076c2.735-1.944,5.651-4.283,8.748-7.02
	c3.167-2.663,5.957-5.166,8.37-7.506c2.411-2.339,4.481-4.553,6.21-6.642c0.144-0.143,0.286-0.216,0.432-0.216
	c0.503,0,0.54,0.396,0.108,1.188c-1.226,1.873-2.431,3.925-3.618,6.156c-1.188,2.232-2.395,4.681-3.618,7.344
	c-2.017,4.32-3.547,8.299-4.59,11.934c-1.045,3.635-1.639,6.966-1.782,9.99c-0.104,2.621,0.484,4.792,1.739,6.533
	c0.332-0.123,0.668-0.234,1-0.356C232.594,112.444,232.251,111.074,232.251,109.41z M230.361,82.302
	c-4.5,4.249-8.767,7.668-12.798,10.26c-0.577,0.361-1.117,0.54-1.62,0.54c-1.296,0-1.944-0.864-1.944-2.592
	c0-0.792,0.18-1.62,0.54-2.484c2.016-4.752,5.4-9.791,10.152-15.12c5.184-5.687,9.467-8.964,12.852-9.828
	c0.864-0.216,1.691-0.324,2.484-0.324c1.512,0,2.717,0.324,3.618,0.972c0.899,0.648,1.35,1.369,1.35,2.16
	c0,0.361-0.107,0.648-0.323,0.864C239.631,72.871,234.86,78.055,230.361,82.302z"/>
<path stroke="#000000" stroke-miterlimit="10" d="M263.247,106.062c-6.12,4.968-11.124,8.063-15.012,9.288
	c-2.521,0.864-5.04,1.296-7.56,1.296c-2.585,0-4.568-0.518-5.963-1.54c-0.327,0.122-0.658,0.241-0.983,0.364
	c0.121,0.103,0.23,0.213,0.358,0.312c2.303,1.872,5.219,2.808,8.747,2.808c1.08,0,2.142-0.091,3.187-0.27
	c1.043-0.181,2.068-0.451,3.078-0.81c3.888-1.512,8.783-4.681,14.688-9.504c1.247-1.054,2.41-2.083,3.529-3.099
	c-1.323,0.344-2.635,0.694-3.939,1.047C263.332,105.991,263.291,106.026,263.247,106.062z"/>
<path stroke="#000000" stroke-miterlimit="10" d="M231.495,49.47c1.367-0.503,2.879-1.043,4.536-1.62
	c1.655-0.575,3.33-1.134,5.022-1.674c1.69-0.54,3.311-1.062,4.859-1.566c1.548-0.503,2.862-0.935,3.942-1.296
	c0.503-0.143,0.81-0.467,0.918-0.972c0.108-0.503,0.071-0.989-0.108-1.458c-0.18-0.468-0.469-0.864-0.863-1.188
	c-0.396-0.324-0.848-0.378-1.351-0.162c-1.009,0.504-2.251,1.134-3.726,1.89c-1.477,0.756-3.024,1.53-4.645,2.322
	c-1.619,0.793-3.223,1.584-4.806,2.376c-1.585,0.793-3.024,1.477-4.32,2.052c-0.504,0.289-0.666,0.631-0.485,1.026
	C230.648,49.597,230.991,49.686,231.495,49.47z"/>
<path stroke="#000000" stroke-miterlimit="10" d="M232.262,113.891c-2.502,0.925-4.991,1.879-7.464,2.863
	c-11.05,4.36-20.346,8.827-27.978,13.396c0.083-0.003,0.163-0.011,0.246-0.014c0.15-0.005,0.294,0.004,0.441,0.004
	c0.991-0.4,2.102-0.513,3.18-0.217c0.434,0.119,0.825,0.311,1.195,0.531c4.797-2.869,10.181-5.709,16.22-8.517
	c4.996-2.268,10.208-4.422,15.628-6.468C233.167,114.991,232.677,114.465,232.262,113.891z"/>
<path stroke="#000000" stroke-miterlimit="10" d="M336.686,101.094c-0.432-0.864-0.99-1.674-1.674-2.43
	c-0.685-0.756-1.441-1.387-2.268-1.89c-0.829-0.504-1.639-0.828-2.431-0.972c-1.009-0.145-2.179-0.27-3.51-0.378
	c-1.333-0.108-2.899-0.162-4.698-0.162c-9.792,0-20.195,0.972-31.212,2.916c2.231-6.48,4.158-12.167,5.778-17.064
	c1.62-4.896,3.005-9.072,4.158-12.528c0.647-0.864,1.043-1.728,1.188-2.592c0-0.576-0.234-1.115-0.702-1.62
	c-0.469-0.503-0.99-0.827-1.565-0.972c-0.146-0.144-0.361-0.216-0.648-0.216c-7.344-0.071-15.228,2.521-23.651,7.776
	c-8.425,5.329-14.329,11.448-17.712,18.36c-0.648,1.225-0.973,2.34-0.973,3.348c0,2.592,1.296,3.888,3.888,3.888
	c0.792,0,1.476-0.108,2.053-0.324c2.087-0.937,4.644-2.322,7.668-4.158c3.023-1.836,6.588-4.193,10.691-7.074
	c3.24-2.303,5.957-4.266,8.154-5.886c2.195-1.62,3.905-3.005,5.13-4.158c-0.288,0.864-0.559,1.819-0.81,2.862
	c-0.253,1.044-0.559,2.178-0.918,3.402c-2.232,7.992-4.177,13.859-5.832,17.604c-5.688,1.081-11.306,2.299-16.863,3.64
	c-0.825,0.801-1.7,1.616-2.61,2.442c6.142-1.595,12.487-3.082,19.041-4.461c-3.169,9.72-6.75,18.9-10.746,27.54
	c-3.995,8.64-8.406,16.883-13.229,24.732c-15.695,25.415-32.255,38.448-49.68,39.096c-10.007,0.433-19.009-2.413-27-8.532
	c-7.56-5.832-11.34-12.564-11.34-20.195c0-2.306,0.432-4.608,1.296-6.912c2.21-5.526,6.498-10.948,12.775-16.271
	c-0.187-1.514-0.042-3.1,0.401-4.512c-7.905,5.793-13.17,11.749-15.768,17.867c-1.151,2.735-1.728,5.436-1.728,8.1
	c0,8.495,4.357,16.163,13.068,23.004c8.64,6.84,18.144,9.972,28.512,9.396c30.24-1.944,55.979-33.193,77.22-93.744
	c4.175-0.937,8.91-1.603,14.202-1.998c5.292-0.396,11.214-0.594,17.766-0.594c1.656,0,3.149,0.017,4.482,0.054
	c1.331,0.036,2.501,0.089,3.51,0.162c3.527,0.287,5.292,1.728,5.292,4.32c0,3.167-2.124,6.731-6.372,10.692
	c-0.721,0.503-1.08,0.972-1.08,1.404c0,0.071,0.071,0.108,0.216,0.108c0.433,0,0.973-0.289,1.62-0.864
	c3.743-2.953,6.084-5.329,7.021-7.128c0.359-0.72,0.54-1.512,0.54-2.376C337.334,102.857,337.118,101.958,336.686,101.094z
	 M292.514,74.526c-1.441,1.296-3.259,2.791-5.454,4.482c-2.197,1.692-4.771,3.583-7.722,5.67
	c-7.344,5.256-11.772,7.884-13.284,7.884c-1.728,0-2.592-1.151-2.592-3.456c0-0.359,0.017-0.648,0.054-0.864
	c0.035-0.216,0.09-0.503,0.162-0.864c1.512-4.463,5.004-8.856,10.476-13.176c5.185-3.959,10.404-6.551,15.66-7.776
	c2.52-0.648,4.175-0.827,4.969-0.54c0.503,0.072,0.756,0.756,0.756,2.052c-0.073,0.073-0.108,0.216-0.108,0.432v0.108
	c0.071,0,0.108,0.037,0.108,0.108C295.322,71.178,294.313,73.159,292.514,74.526z"/>
<path stroke="#000000" stroke-miterlimit="10" d="M234.712,115.106c8.979-3.351,18.531-6.403,28.665-9.151
	c1.094-0.886,2.133-1.763,3.141-2.634c-11.357,2.861-22.445,6.258-33.255,10.213C233.64,114.149,234.123,114.674,234.712,115.106z"
	/>
<path stroke="#000000" stroke-miterlimit="10" d="M267.316,104.908c0.91-0.826,1.785-1.641,2.61-2.442
	c-1.142,0.275-2.273,0.569-3.409,0.855c-1.008,0.871-2.047,1.748-3.141,2.634C264.682,105.602,265.993,105.251,267.316,104.908z"/>
<path stroke="#000000" stroke-miterlimit="10" d="M233.729,115.47c0.325-0.123,0.656-0.243,0.983-0.364
	c-0.59-0.432-1.073-0.957-1.45-1.571c-0.332,0.122-0.669,0.233-1,0.356C232.677,114.465,233.167,114.991,233.729,115.47z"/>
<path stroke="#000000" stroke-miterlimit="10" d="M312.709,63.456c0.647,0.469,1.296,0.883,1.943,1.242
	c0.433,0.145,0.503,0.469,0.217,0.972c-9.505,11.664-14.329,20.485-14.473,26.46c0,0.577,0.162,1.117,0.486,1.62
	s0.719,0.935,1.188,1.296c0.468,0.36,0.989,0.63,1.566,0.81c0.575,0.179,1.115,0.233,1.62,0.162
	c6.335-0.937,13.716-5.039,22.14-12.312c4.32-3.672,7.542-7.074,9.666-10.206c2.123-3.132,3.294-6.065,3.51-8.802
	c0-0.144-0.037-0.324-0.107-0.54c-0.072-0.216-0.146-0.432-0.216-0.648c-0.146-0.216-0.146-0.432,0-0.648
	c0.647-0.864,2.087-1.296,4.319-1.296c1.08,0,1.62-0.216,1.62-0.648c0-0.143-0.54-0.287-1.62-0.432
	c-3.023-0.071-5.707-0.144-8.046-0.216c-2.34-0.071-4.338-0.144-5.994-0.216c-0.145-0.071-0.27-0.144-0.378-0.216
	c-0.107-0.071-0.234-0.143-0.378-0.216c-2.089-1.367-3.709-2.015-4.859-1.944c-1.585,0.072-3.17,0.864-4.752,2.376
	c-0.505,0.289-0.901,0.432-1.188,0.432c-0.072,0-1.441,0.037-4.104,0.108c-1.657,0.072-2.593,0.289-2.809,0.648
	c-0.216,0.361-0.324,0.648-0.324,0.864C311.736,62.538,312.061,62.989,312.709,63.456z M321.564,64.698
	c1.08-0.719,1.691-1.043,1.836-0.972c1.296-0.503,2.7-0.845,4.212-1.026c1.513-0.179,3.133-0.162,4.86,0.054
	c3.24,0.361,4.607,1.62,4.104,3.78c-1.08,5.256-5.222,11.088-12.421,17.496c-6.841,6.264-12.708,9.792-17.604,10.584
	c-2.305,0.432-3.456-0.216-3.456-1.944c0-0.791,0.216-1.583,0.648-2.376C307.92,80.358,313.859,71.826,321.564,64.698z"/>
<path stroke="#000000" stroke-miterlimit="10" d="M372.108,62.322c0.216,0.145,0.503,0.126,0.864-0.054
	c0.359-0.179,0.702-0.432,1.025-0.756c0.324-0.324,0.611-0.684,0.864-1.08c0.252-0.395,0.378-0.702,0.378-0.918
	c0-0.071-0.037-0.144-0.107-0.216c-1.08-0.503-2.737-0.719-4.969-0.648c-2.592,1.08-6.192,3.493-10.8,7.236
	c-4.465,3.601-8.1,7.092-10.908,10.476c-0.216,0.289-0.647,0.577-1.296,0.864c-0.793,0.289-1.188,0.253-1.188-0.108
	c0-0.287,0.107-0.648,0.324-1.08c0.791-1.583,1.997-3.545,3.617-5.886c1.62-2.339,3.581-5.093,5.887-8.262
	c0.359-0.359,0.395-0.756,0.107-1.188c-0.145-0.359-0.432-0.54-0.864-0.54c-0.216,0-0.36,0.073-0.432,0.216
	c-4.536,2.737-7.236,4.25-8.1,4.536c-0.073,0.216-0.073,0.469,0,0.756c0.216,0.648,0.323,1.045,0.323,1.188
	c0,0.721-0.216,1.62-0.647,2.7c-2.521,5.832-7.273,14.148-14.256,24.948c-0.216,0.359-0.252,0.719-0.108,1.08
	c0.073,0.432,0.289,0.432,0.648,0c0.937-0.577,1.765-1.026,2.483-1.35c0.719-0.324,1.367-0.594,1.944-0.81
	c0.575-0.287,0.864-0.54,0.864-0.756c8.352-13.679,17.855-23.471,28.512-29.376C368.724,61.998,370.667,61.674,372.108,62.322z"/>
<path stroke="#000000" stroke-miterlimit="10" d="M382.584,52.926c1.08,0.216,2.411-0.432,3.996-1.944
	c1.799-1.583,2.808-2.987,3.023-4.212c0.217-0.648-0.019-1.277-0.701-1.89c-0.686-0.611-1.423-0.846-2.214-0.702
	c-1.01,0.216-2.341,1.188-3.996,2.916c-1.657,1.657-2.484,2.988-2.484,3.996C380.208,52.027,380.999,52.639,382.584,52.926z"/>
<path stroke="#000000" stroke-miterlimit="10" d="M397.164,77.766c-0.289,0.073-0.756,0.432-1.404,1.08
	c-1.009,0.937-2.448,2.089-4.319,3.456c-1.874,1.369-3.889,2.737-6.049,4.104c-2.159,1.369-4.266,2.592-6.317,3.672
	s-3.764,1.765-5.13,2.052c-0.721,0.145-1.458,0.234-2.214,0.27c-0.757,0.037-1.388-0.162-1.891-0.594
	c-0.505-0.432-0.739-1.134-0.702-2.106c0.036-0.972,0.486-2.357,1.351-4.158c0.863-1.799,1.421-2.987,1.674-3.564
	c0.251-0.575,0.413-0.972,0.486-1.188c0.07-0.216,0.161-0.449,0.27-0.702c0.108-0.251,0.449-0.953,1.026-2.106
	c0.575-1.151,1.528-2.97,2.861-5.454c1.332-2.484,3.222-6.03,5.67-10.638c0.648-1.296,0.827-2.339,0.54-3.132
	c-0.288-0.792-0.756-1.296-1.403-1.512c-0.648-0.216-1.333-0.162-2.053,0.162c-0.72,0.324-1.152,0.918-1.296,1.782
	c-0.072,0.289-0.396,1.063-0.972,2.322c-0.577,1.26-1.296,2.772-2.16,4.536c-0.864,1.765-1.801,3.709-2.808,5.832
	c-1.01,2.125-1.944,4.212-2.809,6.264c-0.863,2.052-1.584,3.996-2.159,5.832c-0.577,1.836-0.864,3.331-0.864,4.482
	c0,1.296,0.341,2.395,1.025,3.294c0.684,0.901,1.476,1.62,2.376,2.16c0.899,0.54,1.799,0.881,2.7,1.026
	c0.899,0.144,1.566,0.144,1.998,0c1.583-0.72,3.456-1.728,5.616-3.024s4.302-2.681,6.426-4.158c2.123-1.475,4.067-2.897,5.832-4.266
	c1.764-1.367,3.078-2.484,3.942-3.348c0.432-0.359,0.756-0.756,0.972-1.188s0.306-0.756,0.271-0.972
	C397.613,77.766,397.451,77.695,397.164,77.766z"/>
<text transform="matrix(1 0 0 1 141.4258 155.5151)" font-family="'CenturyGothic-Bold'" font-size="59">computers</text>
<path fill="none" d="M119.413,303.887c-5.905,7.776-9.828,14.401-11.772,19.873c-0.793,1.943-0.721,2.916,0.216,2.916
	c0.503,0,1.043-0.396,1.62-1.188c1.655-1.872,3.581-4.337,5.778-7.398c2.196-3.06,4.625-6.713,7.29-10.962
	c5.471-8.494,9-14.723,10.584-18.684C128.952,292.045,124.38,297.191,119.413,303.887z"/>
<path fill="none" d="M252.036,350.436c3.888-1.226,8.892-4.32,15.012-9.289c0.044-0.035,0.085-0.07,0.13-0.106
	c-10.134,2.747-19.686,5.8-28.665,9.151c1.396,1.021,3.378,1.539,5.963,1.539C246.996,351.73,249.515,351.299,252.036,350.436z"/>
<path fill="none" d="M280.299,359.851c0.172-1.428,0.875-2.779,2.12-3.575c2.807-6.618,5.388-13.531,7.739-20.744
	c-6.554,1.379-12.899,2.867-19.041,4.461c-1.119,1.017-2.282,2.045-3.529,3.1c-5.904,4.822-10.8,7.991-14.688,9.504
	c-1.01,0.359-2.035,0.629-3.078,0.81c-1.045,0.179-2.106,0.271-3.187,0.271c-3.528,0-6.444-0.938-8.747-2.809
	c-0.128-0.099-0.237-0.209-0.358-0.313c-5.42,2.046-10.632,4.201-15.628,6.469c-2.286,1.063-4.477,2.129-6.579,3.201
	c0.151,0.18,0.304,0.355,0.447,0.558c1.583,2.225,0.399,5.557-1.794,6.841c-1.002,0.587-2.042,0.768-3.032,0.638
	c-0.179,0.131-0.36,0.258-0.551,0.362c-0.233,0.127-0.475,0.234-0.718,0.339c-0.283,0.542-0.671,1.023-1.129,1.433
	c0.396,1.504-0.199,3.094-1.258,4.242c-0.206,0.275-0.438,0.533-0.698,0.765c-0.58,0.771-1.381,1.308-2.274,1.611
	c-0.462,1.278-1.433,2.319-2.657,2.882c-0.856,0.675-1.929,1.102-3.101,1.164c-3.917,0.208-5.916-2.74-6.326-6.07
	c-6.277,5.323-10.564,10.745-12.775,16.271c-0.864,2.303-1.296,4.605-1.296,6.912c0,7.631,3.78,14.363,11.34,20.195
	c7.992,6.119,16.994,8.965,27,8.531c17.425-0.646,33.984-13.68,49.68-39.096c4.247-6.91,8.155-14.146,11.761-21.671
	C277.191,363.83,277.977,360.964,280.299,359.851z"/>
<path fill="none" d="M299.23,303.563v-0.107c0-0.216,0.035-0.359,0.108-0.432c0-1.297-0.253-1.98-0.756-2.053
	c-0.794-0.287-2.449-0.107-4.969,0.541c-5.256,1.225-10.476,3.816-15.66,7.775c-5.472,4.32-8.964,8.713-10.476,13.176
	c-0.072,0.361-0.127,0.648-0.162,0.864c-0.037,0.216-0.054,0.505-0.054,0.864c0,2.305,0.864,3.455,2.592,3.455
	c1.512,0,5.94-2.627,13.284-7.883c2.951-2.088,5.524-3.979,7.722-5.67c2.195-1.691,4.013-3.187,5.454-4.482
	c1.799-1.367,2.809-3.348,3.024-5.94C299.339,303.6,299.302,303.563,299.23,303.563z"/>
<path fill="none" d="M248.796,300.971c0-0.791-0.45-1.512-1.35-2.16c-0.901-0.647-2.106-0.972-3.618-0.972
	c-0.793,0-1.62,0.108-2.484,0.324c-3.385,0.864-7.668,4.142-12.852,9.828c-4.752,5.329-8.137,10.368-10.152,15.12
	c-0.36,0.863-0.54,1.692-0.54,2.484c0,1.728,0.648,2.592,1.944,2.592c0.503,0,1.043-0.18,1.62-0.541
	c4.031-2.592,8.298-6.01,12.798-10.26c4.499-4.247,9.27-9.432,14.311-15.552C248.688,301.619,248.796,301.332,248.796,300.971z"/>
<path fill="none" d="M306.897,327.755c0,1.728,1.151,2.376,3.456,1.944c4.896-0.791,10.763-4.32,17.604-10.584
	c7.199-6.408,11.341-12.24,12.421-17.496c0.503-2.16-0.864-3.419-4.104-3.78c-1.728-0.216-3.348-0.232-4.86-0.054
	c-1.512,0.181-2.916,0.523-4.212,1.025c-0.145-0.07-0.756,0.254-1.836,0.973c-7.705,7.128-13.645,15.66-17.819,25.596
	C307.113,326.172,306.897,326.964,306.897,327.755z"/>
<g>
	<path d="M209.442,263.264c1.146-0.377,2.213-0.6,3.201-0.668c2.279-0.158,3.414,0.563,3.403,2.158
		c-0.003,0.51-0.123,1.118-0.358,1.826c-0.236,0.713-0.667,1.496-1.292,2.354c-3.992,6.136-7.782,12.319-11.357,18.524
		c-3.674,6.34-7.196,12.688-10.549,19.031c-8.682,16.563-13.475,28.664-13.987,35.777c-0.171,2.027,0.394,3.807,1.707,5.32
		c1.232,1.525,2.653,1.85,4.258,0.984c1.883-1.022,3.896-2.352,6.034-3.977c2.129-1.614,4.429-3.648,6.895-6.094
		c4.123-3.936,7.151-7.3,9.109-10.125c0.738-1.008,1.112-1.734,1.123-2.182c0.006-0.225-0.125-0.301-0.392-0.232
		c-0.447,0.115-1.083,0.723-1.915,1.831c-2.136,2.727-5.385,6.038-9.777,9.973c-2.358,2.108-4.458,3.835-6.294,5.168
		c-1.843,1.341-3.422,2.358-4.733,3.05c-2.897,1.389-4.221,0.516-3.968-2.629c0.02-0.242,0.042-0.525,0.068-0.846
		c0.02-0.242,0.087-0.538,0.205-0.885c2.371-10,8.464-23.318,17.898-39.445c1.797-3.068,4.335-7.236,7.573-12.453
		c3.166-5.119,7.006-11.207,11.463-18.18c0.39-0.4,0.585-1.211,0.585-2.436c0-2.016-0.537-3.988-1.6-5.932
		c-1.201-2.167-2.776-3.126-4.739-2.859c-6.506,0.775-18.161,9.569-35.942,27.683c-15.284,16.125-28.112,31.065-38.12,44.332
		c-0.668,1.034-1.354,1.634-2.051,1.798c-1.311,0.308-1.49-0.401-0.538-2.127c14.109-25.332,22.102-42.775,24.679-53.266
		c0.377-1.678,0.08-3.184-0.888-4.521c-0.96-1.348-2.208-1.959-3.747-1.826c-3.851,0.332-11.496,6.023-23.263,17.51
		c4.128-8.046,7.397-15.013,9.844-20.949c2.407-5.885,3.992-10.751,4.779-14.631c0.482-2.492-0.253-4.869-2.189-7.159
		c-1.929-2.229-3.971-3.308-6.147-3.214c-4.773,0.483-11.992,4.131-21.836,11.182c-9.898,7.17-19.194,15.53-27.879,25.066
		c-9.714,10.883-15.55,19.862-17.31,26.67c-0.568,2.197-0.604,4.15-0.103,5.857c0.507,1.701,1.159,2.69,1.955,2.973
		c1.319,0.402,2.719,0.167,4.199-0.701c1.449-0.756,2.227-1.347,2.332-1.775c0.105-0.428-0.443-0.441-1.645-0.041
		c-0.711,0.325-2.025,0.229-3.937-0.295c-1.798-0.651-2.468-1.855-2.019-3.607c2.473-9.627,12.727-22.898,30.165-39.014
		c16.021-14.539,27.801-22.083,35.858-23.322c2.747-0.4,4.583-0.042,5.516,1.069c0.936,1.102,1.14,3.231,0.606,6.389
		c-0.565,3.345-2.522,8.978-5.926,16.97c-1.894,4.323-3.913,8.617-6.061,12.883c-2.172,4.299-4.516,8.579-7.033,12.847
		c-5.037,5.346-9.991,10.888-14.86,16.622c-4.945,5.835-9.877,12.016-14.795,18.547c-12.641,16.631-19.876,28.29-21.349,34.498
		c-0.549,2.314-0.462,3.374,0.266,3.174c0.817-0.225,2.382-1.293,4.69-3.191c1.113-0.788,2.075-1.559,2.882-2.311
		c0.806-0.75,1.39-1.367,1.754-1.852c12.585-14.758,27.359-36.62,43.77-64.85c3.461-4.375,8.033-9.063,13.681-14.023
		c6.553-5.832,11.292-8.824,14.31-9.104c2.089-0.194,2.779,1.177,2.069,4.116c-1.867,6.207-5.489,14.743-10.977,25.753
		c-5.666,11.246-13.54,25.353-23.831,42.596c-0.14,0.306-0.244,0.535-0.313,0.688c-0.071,0.152-0.122,0.324-0.155,0.512
		c-0.168,0.945,0.463,1.229,1.896,0.855c1.88-0.49,3.37-1.455,4.469-2.896c14.149-18.714,29.272-36.616,45.225-53.512
		C191.077,274.942,202.597,265.5,209.442,263.264z M104.284,331.445c-4.435,6.607-8.471,12.4-12.089,17.354
		c-3.661,5.011-6.832,9.135-9.5,12.355c-0.981,1.33-1.786,2.078-2.415,2.246c-1.17,0.311-0.934-1.072,0.704-4.141
		c4.207-8.486,11.105-19.073,20.538-31.547c7.764-10.42,14.458-18.393,20.167-24.035
		C118.854,309.304,113.113,318.479,104.284,331.445z"/>
	<path fill="none" stroke="#000000" stroke-miterlimit="10" d="M209.442,263.264c1.146-0.377,2.213-0.6,3.201-0.668
		c2.279-0.158,3.414,0.563,3.403,2.158c-0.003,0.51-0.123,1.118-0.358,1.826c-0.236,0.713-0.667,1.496-1.292,2.354
		c-3.992,6.136-7.782,12.319-11.357,18.524c-3.674,6.34-7.196,12.688-10.549,19.031c-8.682,16.563-13.475,28.664-13.987,35.777
		c-0.171,2.027,0.394,3.807,1.707,5.32c1.232,1.525,2.653,1.85,4.258,0.984c1.883-1.022,3.896-2.352,6.034-3.977
		c2.129-1.614,4.429-3.648,6.895-6.094c4.123-3.936,7.151-7.3,9.109-10.125c0.738-1.008,1.112-1.734,1.123-2.182
		c0.006-0.225-0.125-0.301-0.392-0.232c-0.447,0.115-1.083,0.723-1.915,1.831c-2.136,2.727-5.385,6.038-9.777,9.973
		c-2.358,2.108-4.458,3.835-6.294,5.168c-1.843,1.341-3.422,2.358-4.733,3.05c-2.897,1.389-4.221,0.516-3.968-2.629
		c0.02-0.242,0.042-0.525,0.068-0.846c0.02-0.242,0.087-0.538,0.205-0.885c2.371-10,8.464-23.318,17.898-39.445
		c1.797-3.068,4.335-7.236,7.573-12.453c3.166-5.119,7.006-11.207,11.463-18.18c0.39-0.4,0.585-1.211,0.585-2.436
		c0-2.016-0.537-3.988-1.6-5.932c-1.201-2.167-2.776-3.126-4.739-2.859c-6.506,0.775-18.161,9.569-35.942,27.683
		c-15.284,16.125-28.112,31.065-38.12,44.332c-0.668,1.034-1.354,1.634-2.051,1.798c-1.311,0.308-1.49-0.401-0.538-2.127
		c14.109-25.332,22.102-42.775,24.679-53.266c0.377-1.678,0.08-3.184-0.888-4.521c-0.96-1.348-2.208-1.959-3.747-1.826
		c-3.851,0.332-11.496,6.023-23.263,17.51c4.128-8.046,7.397-15.013,9.844-20.949c2.407-5.885,3.992-10.751,4.779-14.631
		c0.482-2.492-0.253-4.869-2.189-7.159c-1.929-2.229-3.971-3.308-6.147-3.214c-4.773,0.483-11.992,4.131-21.836,11.182
		c-9.898,7.17-19.194,15.53-27.879,25.066c-9.714,10.883-15.55,19.862-17.31,26.67c-0.568,2.197-0.604,4.15-0.103,5.857
		c0.507,1.701,1.159,2.69,1.955,2.973c1.319,0.402,2.719,0.167,4.199-0.701c1.449-0.756,2.227-1.347,2.332-1.775
		c0.105-0.428-0.443-0.441-1.645-0.041c-0.711,0.325-2.025,0.229-3.937-0.295c-1.798-0.651-2.468-1.855-2.019-3.607
		c2.473-9.627,12.727-22.898,30.165-39.014c16.021-14.539,27.801-22.083,35.858-23.322c2.747-0.4,4.583-0.042,5.516,1.069
		c0.936,1.102,1.14,3.231,0.606,6.389c-0.565,3.345-2.522,8.978-5.926,16.97c-1.894,4.323-3.913,8.617-6.061,12.883
		c-2.172,4.299-4.516,8.579-7.033,12.847c-5.037,5.346-9.991,10.888-14.86,16.622c-4.945,5.835-9.877,12.016-14.795,18.547
		c-12.641,16.631-19.876,28.29-21.349,34.498c-0.549,2.314-0.462,3.374,0.266,3.174c0.817-0.225,2.382-1.293,4.69-3.191
		c1.113-0.788,2.075-1.559,2.882-2.311c0.806-0.75,1.39-1.367,1.754-1.852c12.585-14.758,27.359-36.62,43.77-64.85
		c3.461-4.375,8.033-9.063,13.681-14.023c6.553-5.832,11.292-8.824,14.31-9.104c2.089-0.194,2.779,1.177,2.069,4.116
		c-1.867,6.207-5.489,14.743-10.977,25.753c-5.666,11.246-13.54,25.353-23.831,42.596c-0.14,0.306-0.244,0.535-0.313,0.688
		c-0.071,0.152-0.122,0.324-0.155,0.512c-0.168,0.945,0.463,1.229,1.896,0.855c1.88-0.49,3.37-1.455,4.469-2.896
		c14.149-18.714,29.272-36.616,45.225-53.512C191.077,274.942,202.597,265.5,209.442,263.264z M104.284,331.445
		c-4.435,6.607-8.471,12.4-12.089,17.354c-3.661,5.011-6.832,9.135-9.5,12.355c-0.981,1.33-1.786,2.078-2.415,2.246
		c-1.17,0.311-0.934-1.072,0.704-4.141c4.207-8.486,11.105-19.073,20.538-31.547c7.764-10.42,14.458-18.393,20.167-24.035
		C118.854,309.304,113.113,318.479,104.284,331.445z"/>
</g>
<path stroke="#000000" stroke-miterlimit="10" d="M276.013,335.262c2.376-2.484,4.354-4.951,5.939-7.398
	c0.359-0.503,0.54-0.899,0.54-1.188c0-0.145-0.037-0.287-0.108-0.433c-0.288,0-0.72,0.36-1.296,1.08
	c-2.737,3.552-6.338,7.247-10.77,11.083c1.136-0.286,2.268-0.58,3.409-0.855C274.523,336.777,275.295,336.012,276.013,335.262z"/>
<path stroke="#000000" stroke-miterlimit="10" d="M236.052,344.495c0-0.361,0-0.721,0-1.08c0-0.288,0.036-0.612,0.108-0.972
	c0.648-4.177,1.817-8.586,3.51-13.23c1.691-4.645,4.05-9.485,7.074-14.525c1.871-3.24,3.851-6.426,5.94-9.559
	c2.087-3.132,4.139-6.318,6.155-9.558c0.071-0.216,0.018-0.486-0.162-0.81c-0.18-0.324-0.45-0.486-0.81-0.486
	c-0.216,0-0.396,0.072-0.54,0.216c-0.864,0.72-1.836,1.188-2.916,1.403c-0.146,0.073-0.793,0.037-1.944-0.107
	c-1.873-0.648-3.636-0.973-5.292-0.973c-1.584,0-3.061,0.289-4.428,0.865c-2.737,1.152-5.742,2.845-9.018,5.075
	c-3.277,2.233-6.75,5.185-10.422,8.856c-7.992,7.992-11.988,14.58-11.988,19.764c0,2.447,0.901,3.672,2.7,3.672
	c0.935,0,1.763-0.253,2.483-0.756c2.304-1.441,4.823-3.132,7.561-5.076c2.735-1.943,5.651-4.283,8.748-7.02
	c3.167-2.663,5.957-5.166,8.37-7.506c2.411-2.34,4.481-4.553,6.21-6.643c0.144-0.143,0.286-0.216,0.432-0.216
	c0.503,0,0.54,0.396,0.108,1.188c-1.226,1.873-2.431,3.925-3.618,6.156c-1.188,2.232-2.395,4.681-3.618,7.344
	c-2.017,4.319-3.547,8.299-4.59,11.934c-1.045,3.635-1.639,6.966-1.782,9.99c-0.104,2.62,0.484,4.792,1.739,6.532
	c0.332-0.122,0.668-0.234,1-0.356C236.395,347.529,236.052,346.159,236.052,344.495z M234.162,317.387
	c-4.5,4.25-8.767,7.668-12.798,10.26c-0.577,0.361-1.117,0.541-1.62,0.541c-1.296,0-1.944-0.864-1.944-2.592
	c0-0.792,0.18-1.621,0.54-2.484c2.016-4.752,5.4-9.791,10.152-15.12c5.184-5.687,9.467-8.964,12.852-9.828
	c0.864-0.216,1.691-0.324,2.484-0.324c1.512,0,2.717,0.324,3.618,0.972c0.899,0.648,1.35,1.369,1.35,2.16
	c0,0.361-0.107,0.648-0.323,0.864C243.432,307.955,238.661,313.14,234.162,317.387z"/>
<path stroke="#000000" stroke-miterlimit="10" d="M267.048,341.146c-6.12,4.969-11.124,8.063-15.012,9.289
	c-2.521,0.863-5.04,1.295-7.56,1.295c-2.585,0-4.568-0.518-5.963-1.539c-0.327,0.121-0.658,0.24-0.983,0.363
	c0.121,0.104,0.23,0.214,0.358,0.313c2.303,1.871,5.219,2.809,8.747,2.809c1.08,0,2.142-0.092,3.187-0.271
	c1.043-0.181,2.068-0.45,3.078-0.81c3.888-1.513,8.783-4.682,14.688-9.504c1.247-1.055,2.41-2.083,3.529-3.1
	c-1.323,0.344-2.635,0.694-3.939,1.048C267.133,341.076,267.092,341.111,267.048,341.146z"/>
<path stroke="#000000" stroke-miterlimit="10" d="M235.296,284.555c1.367-0.502,2.879-1.043,4.536-1.619
	c1.655-0.576,3.33-1.135,5.022-1.674c1.69-0.541,3.311-1.063,4.859-1.566c1.548-0.503,2.862-0.936,3.942-1.297
	c0.503-0.143,0.81-0.467,0.918-0.971s0.071-0.99-0.108-1.459c-0.18-0.467-0.469-0.863-0.863-1.188
	c-0.396-0.324-0.848-0.378-1.351-0.162c-1.009,0.504-2.251,1.134-3.726,1.891c-1.477,0.756-3.024,1.529-4.645,2.321
	c-1.619,0.793-3.223,1.585-4.806,2.376c-1.585,0.793-3.024,1.477-4.32,2.053c-0.504,0.288-0.666,0.631-0.485,1.025
	C234.449,284.682,234.792,284.771,235.296,284.555z"/>
<path stroke="#000000" stroke-miterlimit="10" d="M236.063,348.976c-2.502,0.925-4.991,1.88-7.464,2.863
	c-5.572,2.198-10.694,4.424-15.386,6.677c0.773,0.382,1.475,0.948,2.11,1.709c2.102-1.072,4.293-2.139,6.579-3.201
	c4.996-2.268,10.208-4.423,15.628-6.469C236.968,350.076,236.478,349.551,236.063,348.976z"/>
<path stroke="#000000" stroke-miterlimit="10" d="M277.943,366.132c-3.605,7.524-7.514,14.761-11.761,21.671
	c-15.695,25.416-32.255,38.449-49.68,39.096c-10.007,0.434-19.009-2.412-27-8.531c-7.56-5.832-11.34-12.564-11.34-20.195
	c0-2.307,0.432-4.609,1.296-6.912c2.21-5.526,6.498-10.948,12.775-16.271c-0.187-1.514-0.042-3.1,0.401-4.512
	c-7.905,5.793-13.17,11.748-15.768,17.867c-1.151,2.734-1.728,5.436-1.728,8.1c0,8.494,4.357,16.162,13.068,23.004
	c8.64,6.84,18.144,9.971,28.512,9.396c23.994-1.543,45.15-21.557,63.478-59.996C279.068,368.271,278.316,367.273,277.943,366.132z"
	/>
<path stroke="#000000" stroke-miterlimit="10" d="M340.486,336.18c-0.432-0.865-0.99-1.675-1.674-2.431
	c-0.685-0.756-1.441-1.388-2.268-1.89c-0.829-0.505-1.639-0.828-2.431-0.973c-1.009-0.145-2.179-0.27-3.51-0.377
	c-1.333-0.109-2.899-0.162-4.698-0.162c-9.792,0-20.195,0.971-31.212,2.916c2.231-6.48,4.158-12.168,5.778-17.064
	c1.62-4.896,3.005-9.072,4.158-12.528c0.647-0.864,1.043-1.728,1.188-2.592c0-0.575-0.234-1.115-0.702-1.62
	c-0.469-0.503-0.99-0.826-1.565-0.972c-0.146-0.144-0.361-0.216-0.648-0.216c-7.344-0.071-15.228,2.521-23.651,7.775
	c-8.425,5.329-14.329,11.448-17.712,18.36c-0.648,1.226-0.973,2.341-0.973,3.348c0,2.593,1.296,3.888,3.888,3.888
	c0.792,0,1.476-0.107,2.053-0.324c2.087-0.936,4.644-2.321,7.668-4.157c3.023-1.836,6.588-4.193,10.691-7.074
	c3.24-2.304,5.957-4.266,8.154-5.886c2.195-1.62,3.905-3.006,5.13-4.158c-0.288,0.864-0.559,1.819-0.81,2.862
	c-0.253,1.044-0.559,2.179-0.918,3.401c-2.232,7.992-4.177,13.859-5.832,17.604c-5.688,1.081-11.306,2.3-16.863,3.64
	c-0.825,0.801-1.7,1.616-2.61,2.441c6.142-1.594,12.487-3.082,19.041-4.461c-2.352,7.213-4.933,14.126-7.739,20.744
	c0.714-0.456,1.6-0.733,2.665-0.733c0.356,0,0.689,0.035,1.006,0.093c2.681-6.426,5.298-13.264,7.849-20.535
	c4.175-0.938,8.91-1.604,14.202-1.998c5.292-0.396,11.214-0.594,17.766-0.594c1.656,0,3.149,0.016,4.482,0.053
	c1.331,0.036,2.501,0.09,3.51,0.162c3.527,0.287,5.292,1.729,5.292,4.32c0,3.168-2.124,6.731-6.372,10.691
	c-0.721,0.504-1.08,0.973-1.08,1.404c0,0.071,0.071,0.108,0.216,0.108c0.433,0,0.973-0.288,1.62-0.864
	c3.743-2.953,6.084-5.328,7.021-7.128c0.359-0.72,0.54-1.512,0.54-2.376C341.135,337.942,340.919,337.043,340.486,336.18z
	 M296.314,309.611c-1.441,1.296-3.259,2.791-5.454,4.482c-2.197,1.691-4.771,3.582-7.722,5.67
	c-7.344,5.256-11.772,7.883-13.284,7.883c-1.728,0-2.592-1.15-2.592-3.455c0-0.359,0.017-0.648,0.054-0.864
	c0.035-0.216,0.09-0.503,0.162-0.864c1.512-4.463,5.004-8.855,10.476-13.176c5.185-3.959,10.404-6.551,15.66-7.775
	c2.52-0.648,4.175-0.828,4.969-0.541c0.503,0.072,0.756,0.756,0.756,2.053c-0.073,0.072-0.108,0.216-0.108,0.432v0.107
	c0.071,0,0.108,0.037,0.108,0.108C299.123,306.264,298.113,308.244,296.314,309.611z"/>
<path stroke="#000000" stroke-miterlimit="10" d="M238.513,350.191c8.979-3.352,18.531-6.404,28.665-9.151
	c1.094-0.886,2.133-1.763,3.141-2.634c-11.357,2.861-22.445,6.258-33.255,10.213C237.44,349.234,237.923,349.759,238.513,350.191z"
	/>
<path stroke="#000000" stroke-miterlimit="10" d="M271.117,339.992c0.91-0.825,1.785-1.641,2.61-2.441
	c-1.142,0.275-2.273,0.569-3.409,0.855c-1.008,0.871-2.047,1.748-3.141,2.634C268.482,340.687,269.794,340.336,271.117,339.992z"/>
<path stroke="#000000" stroke-miterlimit="10" d="M237.53,350.555c0.325-0.123,0.656-0.242,0.983-0.363
	c-0.59-0.433-1.073-0.957-1.45-1.572c-0.332,0.122-0.669,0.234-1,0.356C236.478,349.551,236.968,350.076,237.53,350.555z"/>
<path stroke="#000000" stroke-miterlimit="10" d="M316.51,298.541c0.647,0.469,1.296,0.883,1.943,1.242
	c0.433,0.145,0.503,0.469,0.217,0.972c-9.505,11.664-14.329,20.485-14.473,26.46c0,0.577,0.162,1.117,0.486,1.62
	s0.719,0.935,1.188,1.296c0.468,0.359,0.989,0.63,1.566,0.811c0.575,0.179,1.115,0.232,1.62,0.162
	c6.335-0.938,13.716-5.039,22.14-12.313c4.32-3.672,7.542-7.074,9.666-10.206c2.123-3.132,3.294-6.065,3.51-8.802
	c0-0.144-0.037-0.324-0.107-0.54c-0.072-0.216-0.146-0.433-0.216-0.647c-0.146-0.217-0.146-0.433,0-0.648
	c0.647-0.864,2.087-1.297,4.319-1.297c1.08,0,1.62-0.215,1.62-0.647c0-0.144-0.54-0.286-1.62-0.432
	c-3.023-0.071-5.707-0.144-8.046-0.216c-2.34-0.071-4.338-0.145-5.994-0.217c-0.145-0.07-0.27-0.143-0.378-0.216
	c-0.107-0.071-0.234-0.144-0.378-0.216c-2.089-1.367-3.709-2.015-4.859-1.943c-1.585,0.072-3.17,0.863-4.752,2.375
	c-0.505,0.289-0.901,0.433-1.188,0.433c-0.072,0-1.441,0.037-4.104,0.108c-1.657,0.072-2.593,0.288-2.809,0.647
	c-0.216,0.36-0.324,0.647-0.324,0.864C315.537,297.623,315.861,298.074,316.51,298.541z M325.365,299.783
	c1.08-0.719,1.691-1.043,1.836-0.973c1.296-0.502,2.7-0.845,4.212-1.025c1.513-0.179,3.133-0.162,4.86,0.054
	c3.24,0.361,4.607,1.62,4.104,3.78c-1.08,5.256-5.222,11.088-12.421,17.496c-6.841,6.264-12.708,9.793-17.604,10.584
	c-2.305,0.432-3.456-0.217-3.456-1.944c0-0.791,0.216-1.583,0.648-2.376C311.721,315.443,317.66,306.911,325.365,299.783z"/>
<path stroke="#000000" stroke-miterlimit="10" d="M375.909,297.407c0.216,0.146,0.503,0.126,0.864-0.054
	c0.359-0.18,0.702-0.433,1.025-0.756c0.324-0.324,0.611-0.684,0.864-1.08c0.252-0.396,0.378-0.703,0.378-0.918
	c0-0.071-0.037-0.145-0.107-0.217c-1.08-0.502-2.737-0.719-4.969-0.648c-2.592,1.08-6.192,3.494-10.8,7.236
	c-4.465,3.602-8.1,7.093-10.908,10.477c-0.216,0.289-0.647,0.577-1.296,0.863c-0.793,0.289-1.188,0.254-1.188-0.107
	c0-0.287,0.107-0.648,0.324-1.08c0.791-1.583,1.997-3.545,3.617-5.886c1.62-2.339,3.581-5.093,5.887-8.263
	c0.359-0.359,0.395-0.756,0.107-1.188c-0.145-0.359-0.432-0.54-0.864-0.54c-0.216,0-0.36,0.073-0.432,0.216
	c-4.536,2.737-7.236,4.25-8.1,4.536c-0.073,0.216-0.073,0.47,0,0.756c0.216,0.648,0.323,1.045,0.323,1.188
	c0,0.721-0.216,1.619-0.647,2.699c-2.521,5.832-7.273,14.148-14.256,24.949c-0.216,0.359-0.252,0.719-0.108,1.079
	c0.073,0.433,0.289,0.433,0.648,0c0.937-0.577,1.765-1.026,2.483-1.35c0.719-0.324,1.367-0.595,1.944-0.81
	c0.575-0.287,0.864-0.541,0.864-0.757c8.352-13.679,17.855-23.472,28.512-29.376C372.524,297.083,374.468,296.76,375.909,297.407z"
	/>
<path stroke="#000000" stroke-miterlimit="10" d="M386.385,288.012c1.08,0.215,2.411-0.433,3.996-1.945
	c1.799-1.582,2.808-2.986,3.023-4.211c0.217-0.648-0.019-1.277-0.701-1.891c-0.686-0.611-1.423-0.846-2.214-0.701
	c-1.01,0.215-2.341,1.188-3.996,2.916c-1.657,1.656-2.484,2.988-2.484,3.996C384.009,287.111,384.8,287.725,386.385,288.012z"/>
<path stroke="#000000" stroke-miterlimit="10" d="M400.965,312.852c-0.289,0.072-0.756,0.432-1.404,1.08
	c-1.009,0.936-2.448,2.088-4.319,3.455c-1.874,1.369-3.889,2.737-6.049,4.104c-2.159,1.368-4.266,2.592-6.317,3.672
	s-3.764,1.765-5.13,2.052c-0.721,0.146-1.458,0.234-2.214,0.27c-0.757,0.037-1.388-0.161-1.891-0.594
	c-0.505-0.432-0.739-1.133-0.702-2.105c0.036-0.973,0.486-2.357,1.351-4.158c0.863-1.799,1.421-2.986,1.674-3.564
	c0.251-0.574,0.413-0.971,0.486-1.188c0.07-0.216,0.161-0.449,0.27-0.702c0.108-0.251,0.449-0.953,1.026-2.106
	c0.575-1.15,1.528-2.969,2.861-5.453c1.332-2.484,3.222-6.029,5.67-10.639c0.648-1.295,0.827-2.338,0.54-3.131
	c-0.288-0.792-0.756-1.297-1.403-1.513c-0.648-0.216-1.333-0.162-2.053,0.162c-0.72,0.323-1.152,0.918-1.296,1.782
	c-0.072,0.288-0.396,1.063-0.972,2.322c-0.577,1.26-1.296,2.771-2.16,4.535c-0.864,1.766-1.801,3.709-2.808,5.832
	c-1.01,2.125-1.944,4.213-2.809,6.264c-0.863,2.053-1.584,3.996-2.159,5.832c-0.577,1.836-0.864,3.332-0.864,4.482
	c0,1.296,0.341,2.395,1.025,3.294c0.684,0.901,1.476,1.62,2.376,2.16c0.899,0.54,1.799,0.881,2.7,1.026
	c0.899,0.143,1.566,0.143,1.998,0c1.583-0.721,3.456-1.729,5.616-3.024s4.302-2.681,6.426-4.157
	c2.123-1.476,4.067-2.898,5.832-4.267c1.764-1.367,3.078-2.483,3.942-3.349c0.432-0.359,0.756-0.756,0.972-1.188
	s0.306-0.756,0.271-0.973C401.414,312.852,401.252,312.78,400.965,312.852z"/>
<text transform="matrix(1 0 0 1 145.3691 386.5996)" font-family="'CenturyGothic-Bold'" font-size="50">COMPUTERS</text>
</svg>
